<svg width="29" height="31" viewBox="0 0 29 31" fill="none" xmlns="http://www.w3.org/2000/svg">
<path d="M11.8977 13.1326C15.3055 13.1326 18.7212 13.1405 22.129 13.1248C22.91 13.1248 23.5963 13.1721 23.7619 14.1581C23.8408 14.6236 24.2668 14.5762 24.606 14.5605C27.4458 14.3869 29.1813 16.9585 28.566 19.7274C27.9586 22.4805 25.6709 24.563 22.7049 24.9022C21.7582 25.0127 21.0167 25.3282 20.3462 26.0303C19.2576 27.1662 17.9323 28.0182 16.5834 28.8149C16.1417 29.0752 15.6762 29.1225 15.1793 29.1225C13.0178 29.1147 10.8643 29.1225 8.70285 29.1225C8.25321 29.1225 7.80357 29.1225 7.38548 28.8938C2.82596 26.3774 -0.084885 22.8118 0.001888 17.3293C0.0176649 16.4221 -0.00600055 15.515 0.0571071 14.6157C0.151769 13.322 0.364757 13.1326 1.66635 13.1326C5.07416 13.1326 8.48986 13.1326 11.8977 13.1326ZM27.1697 18.623C27.1697 17.0848 26.1363 16.0514 24.7164 16.1303C24.2194 16.1539 23.9433 16.3275 23.9118 16.856C23.8092 18.907 23.5647 20.9343 22.6891 22.8354C22.5155 23.1983 22.6496 23.3245 23.0677 23.2772C25.1266 23.0327 27.1697 20.7292 27.1697 18.623Z" fill="#F56735"/>
<path d="M11.8582 31C9.94126 31 8.03226 31 6.11536 31C5.87082 31 5.62628 31 5.38174 30.9921C4.93209 30.9763 4.49823 30.8659 4.49034 30.3295C4.48245 29.7931 4.91632 29.659 5.36596 29.6511C6.23369 29.6353 7.10931 29.6353 7.97704 29.6353C11.1797 29.6353 14.3825 29.6353 17.5852 29.6353C17.9007 29.6353 18.2163 29.6353 18.5239 29.6511C18.9341 29.6826 19.3049 29.8167 19.3127 30.3058C19.3206 30.787 18.9578 30.9527 18.5397 30.9763C18.0506 31 17.5694 31 17.0803 31C15.337 31 13.6015 31 11.8582 31Z" fill="#F56735"/>
<path d="M10.9353 9.18842C10.249 9.85105 9.74416 9.65384 9.28663 8.88866C8.49778 7.57129 8.60822 6.18292 9.67316 5.07065C10.0518 4.66834 10.4778 4.30547 10.9038 3.9426C11.803 3.16953 12.4341 2.32547 11.9371 1.04754C11.7715 0.613671 11.8346 0.187694 12.3473 0.0299252C12.8128 -0.104179 13.0652 0.235025 13.2151 0.597894C13.7199 1.82849 13.5937 2.99598 12.7023 4.00571C12.2211 4.55001 11.6611 5.02332 11.1325 5.52818C9.97292 6.63256 9.90193 7.02698 10.5961 8.43113C10.7223 8.67567 10.8249 8.93599 10.9353 9.18842Z" fill="#F56735"/>
<path d="M10.9275 9.20419C11.4718 8.47846 12.1108 7.84738 12.8129 7.26364C13.4991 6.69567 13.8857 5.99359 13.5859 5.06276C13.4518 4.63678 13.4203 4.17925 13.9409 4.02148C14.5168 3.84793 14.7455 4.29758 14.9112 4.73144C15.2977 5.73327 15.0926 6.66411 14.4458 7.47662C14.0829 7.93415 13.6411 8.34435 13.1994 8.73089C12.3317 9.46451 11.9136 10.2691 12.6077 11.3577C12.8365 11.7206 12.8365 12.115 12.4026 12.3438C11.9846 12.5647 11.6769 12.328 11.4324 11.9888C10.8171 11.1448 10.7145 10.206 10.9354 9.20419C10.9354 9.18842 10.9275 9.20419 10.9275 9.20419Z" fill="#F56735"/>
</svg>
